<?xml version="1.0" encoding="UTF-8" standalone="no"?>
<!-- Created with Inkscape (http://www.inkscape.org/) -->

<svg
   width="108"
   height="108"
   viewBox="0 0 28.574999 28.575"
   version="1.1"
   id="svg1"
   xml:space="preserve"
   sodipodi:docname="Etcet_round.svg"
   inkscape:version="1.4-beta (f21c272752, 2024-04-22, custom)"
   xmlns:inkscape="http://www.inkscape.org/namespaces/inkscape"
   xmlns:sodipodi="http://sodipodi.sourceforge.net/DTD/sodipodi-0.dtd"
   xmlns="http://www.w3.org/2000/svg"
   style="background:#6ACB5D"
   xmlns:svg="http://www.w3.org/2000/svg">
   <defs
     id="defs1" /><g
     id="g2"
     transform="matrix(0.1,0,0,0.1,8.4666663,2.8663038)"><g
       id="g1"
       transform="matrix(0.62068897,0,0,0.62068897,14.075659,26.899461)"><path
         d="m 72.49584,52.91666 h 54.50417 v 101.42393 h 21.16667 V 52.91666 c 0,-5.82084 -2.07257,-10.80382 -6.21771,-14.94895 C 137.80383,33.82257 132.82084,31.75 127.00001,31.75 H 72.49584 L 88.90001,14.81666 74.08334,0 31.75001,42.33333 74.08334,84.66666 88.90001,69.84999 Z"
         style="fill:#808080;stroke-width:0.264583"
         id="path1-7"
         sodipodi:nodetypes="ccccsssccccccc" /><path
         d="M 0,281.34059 V 112.00726 q 0,-8.73125 6.21771,-14.948964 6.21771,-6.21771 14.94896,-6.21771 h 74.083343 q -5.291673,7.9375 -7.937503,15.213544 -2.64584,7.27604 -2.64584,16.53646 0,19.05 12.038543,33.60208 12.038547,14.55209 30.294797,18.25625 6.08541,0.79375 10.58333,0.79375 4.49792,0 10.58333,-0.79375 v 106.89167 l -74.08333,-31.75 z m 127.00001,-127 v -21.16667 h -21.16667 v -21.16666 h 21.16667 V 90.840586 h 21.16666 v 21.166674 h 21.16667 v 21.16666 h -21.16667 v 21.16667 z"
         id="path1-9"
         style="stroke-width:0.264583" /></g></g></svg>
